<svg width="34" height="35" viewBox="0 0 34 35" fill="none" xmlns="http://www.w3.org/2000/svg">
<path d="M9.01557 12.5356L14.2086 0.00211755C14.2086 0.00211755 5.81388 -0.466423 9.01557 12.5356Z" fill="#11203F"/>
<path d="M25.7416 12.5356L20.5486 0.00211755C20.5486 0.00211755 28.9433 -0.466423 25.7416 12.5356Z" fill="#11203F"/>
<path fill-rule="evenodd" clip-rule="evenodd" d="M24.5511 28.1071C24.4885 28.0956 24.45 28.0885 24.4386 28.0885C24.3418 28.0885 26.4779 29.0134 28.363 29.8217C25.3851 32.4775 21.4579 34.0916 17.1536 34.0916C12.8446 34.0916 8.91392 32.474 5.93478 29.8127C7.8148 29.0064 9.93573 28.0881 9.83929 28.0881C9.82794 28.0881 9.78937 28.0952 9.7268 28.1067C8.87682 28.2637 3.59713 29.2389 1.94712 24.287C4.08288 24.1863 6.57708 24.0602 6.4822 24.0246C6.47181 24.0208 6.43723 24.0138 6.38159 24.0026C5.59197 23.8434 0.562444 22.8294 0.311131 17.6689C0.307617 17.5276 0.305664 17.3854 0.305664 17.2433C0.305664 16.8954 0.316597 16.5503 0.33729 16.2078C2.48164 16.9204 5.69622 17.9809 5.60798 17.9028C5.59926 17.8951 5.56475 17.8743 5.50876 17.8405C4.74998 17.3835 0.0457845 14.5502 2.11696 9.63656C3.31096 7.28058 4.71853 5.77969 6.82618 4.22179C6.82618 4.22179 6.39669 18.9418 13.3077 20.1522L15.6113 17.1457L13.1515 15.9353C13.1515 15.9353 21.8976 10.7814 23.3032 15.2325C23.3032 15.2325 17.9884 15.5058 21.5633 20.1522C21.5633 20.1522 27.9495 19.137 27.6372 4.06561L27.6184 4.03906C29.3911 5.44585 30.874 7.2021 31.963 9.20355C34.5081 14.3834 29.5502 17.37 28.7692 17.8405C28.7132 17.8742 28.6786 17.895 28.6699 17.9028C28.5813 17.9813 31.8255 16.911 33.9695 16.1985C33.9867 16.4811 33.9972 16.7654 34.0003 17.0512L33.9679 16.8657C34.2281 22.7268 28.7252 23.8359 27.8963 24.003C27.8407 24.0142 27.8061 24.0212 27.7957 24.025C27.7008 24.0606 30.195 24.1867 32.3308 24.2874C30.6808 29.2393 25.4011 28.2641 24.5511 28.1071ZM18.0503 25.971L17.1566 23.2207L16.2633 25.971H13.3716L15.7108 27.6707L14.8174 30.421L17.1566 28.7214L19.4962 30.421L18.6024 27.6707L20.942 25.971H18.0503Z" fill="#11203F"/>
</svg>
