<svg width="526" height="218" viewBox="0 0 526 218" fill="none" xmlns="http://www.w3.org/2000/svg">
<path d="M6.75368 203.577C9.5184 203.425 10.3771 202.105 10.9848 200.421C11.3324 199.462 11.7666 198.493 12.3892 197.623C13.0087 196.729 11.9746 196.662 11.5504 196.32C10.5075 195.488 9.09297 195.889 7.77349 195.883C7.39237 195.882 7.0578 195.553 6.71284 195.374C6.89935 195.227 7.04782 195.011 7.26933 194.908C8.65303 194.264 10.0779 193.713 11.4266 193.023C13.7129 191.869 13.7748 189.809 15.0096 188.219C15.5384 187.534 14.5366 186.796 13.7644 186.251C13.1517 185.809 13.079 185.002 13.7724 184.692C15.3261 184.001 15.818 183.024 16.5222 181.872C17.6882 179.97 19.7233 178.452 22.3411 177.601C27.2656 175.99 31.6159 173.314 37.0734 172.673C38.0541 172.549 38.9382 171.893 39.9201 171.547C42.3617 170.694 44.783 169.449 47.2954 169.156C50.1221 168.798 52.1296 167.061 54.8078 166.92C57.6302 166.761 59.3834 164.636 62.2089 164.501C62.7343 164.484 63.1058 163.251 62.8 162.918C62.3893 162.451 62.0051 162.426 61.5351 162.881C60.5983 163.815 59.508 162.84 58.9177 163.038C57.734 163.411 56.8425 164.24 55.3685 164.402C51.5777 164.782 47.8373 165.33 44.0558 165.783C43.5654 165.845 43.0247 165.74 42.5448 165.653C42.3337 165.605 42.0494 165.443 42.031 165.297C41.9817 164.908 41.9079 164.324 42.1521 164.17C43.6873 163.333 45.1918 162.253 46.9039 161.888C48.9045 161.486 50.0989 160.272 51.8699 159.678C52.9929 159.288 52.6587 158.268 52.3553 157.49C52.128 156.852 51.4926 156.462 50.6531 156.544C48.221 156.777 45.7921 157.035 43.4135 157.459C40.8072 157.937 38.7462 159.483 35.9073 159.743C34.8916 159.822 33.9402 161.104 32.9469 161.823C32.7861 161.943 32.3369 162.098 32.3339 162.074C32.06 161.762 31.6997 161.462 31.6247 161.101C31.4408 160.11 31.3024 159.015 33.1999 158.726C35.6135 158.347 37.2368 156.584 39.8923 156.495C42.2851 156.415 44.0176 154.589 46.635 154.431C48.4387 154.327 49.0429 153.311 48.1287 152.339C47.3803 151.519 46.8946 150.69 46.4254 149.761C45.6301 148.106 43.7979 147.522 41.407 147.849C41.4101 147.873 41.442 147.894 41.474 147.915C41.4451 147.918 41.3874 147.926 41.3586 147.929C41.4047 148.294 41.5117 148.676 41.4394 149.032C41.3671 149.387 41.0321 149.751 40.8414 150.096C40.5675 149.785 40.1845 149.536 40.023 149.186C39.8645 148.86 39.8761 148.488 39.8587 148.119C39.8011 148.126 39.7434 148.134 39.7145 148.137C39.7084 148.089 39.7053 148.064 39.728 148.012C38.43 148.176 37.1002 148.32 36.4095 149.346C35.9126 150.052 35.63 150.829 35.1939 151.552C34.6804 152.358 33.3433 152.676 32.5803 152.204C31.8173 151.732 31.077 151.207 30.4201 150.648C28.9406 149.376 27.7696 149.153 25.0333 149.994C23.455 150.49 23.8181 151.507 23.8742 152.415C22.1963 152.355 21.0368 151.76 20.4792 150.594C20.0069 149.641 20.2361 148.672 21.0226 147.708C21.7029 146.83 22.1371 145.861 22.7854 144.963C23.0112 144.663 23.7788 144.244 23.9322 144.299C26.1205 145.382 27.5161 143.673 28.7206 143.001C30.6639 141.915 32.1479 140.442 34.6811 139.85C35.8195 139.582 35.2072 138.448 35.3168 137.693C37.43 136.56 38.8165 134.778 41.217 133.832C41.9711 133.539 42.9037 132.803 42.6714 131.893C41.5869 131.659 40.5024 131.425 39.389 131.195C39.3817 131.369 39.3744 131.543 39.2364 131.61C36.6286 133.003 33.4958 133.72 31.1011 135.407C30.6415 135.713 29.8281 135.074 29.9469 134.392C30.3788 132.013 30.9507 129.815 33.983 128.072C39.7201 124.775 46.2248 122.915 52.6853 120.936C55.1681 120.177 57.769 120.12 60.3118 118.908C62.4662 117.87 65.5594 117.998 68.2326 117.585C68.7517 117.52 69.412 117.411 69.7016 117.152C71.3649 115.706 73.9212 116.223 75.6552 115.337C77.3347 114.481 78.9822 113.606 80.8166 113.744C83.0095 113.937 84.329 112.089 86.633 112.465C87.529 112.599 88.9139 111.732 89.9288 111.183C91.0014 110.627 90.596 109.739 90.616 108.97C90.6371 107.979 91.3698 107.515 92.5781 107.338C96.3216 106.815 100.1 106.337 103.84 105.79C105.164 105.598 106.708 105.526 107.688 104.933C109.378 103.928 111.217 103.868 113.056 103.586C118.152 102.868 123.25 101.927 128.337 101.605C133.8 101.235 138.524 98.7344 143.929 98.3723C144.188 98.3395 144.45 97.8614 144.708 97.5816C144.49 97.4855 144.232 97.2957 144.03 97.3212C142.694 97.416 141.361 97.5351 140.034 97.7028C129.305 99.0596 118.537 100.347 107.817 101.777C104.157 102.264 100.301 102.134 96.9092 104.046C96.1704 104.461 94.426 103.643 93.1826 103.776C91.6509 103.945 90.5625 105.071 88.8 105.269C82.6153 105.952 76.4551 106.83 70.2857 107.635C68.7282 107.832 68.0836 107.37 67.2076 106.467C66.4334 105.675 64.5413 105.543 63.1695 105.123C61.7224 106.889 59.6614 104.727 58.295 105.74C56.0475 107.433 53.2655 107.216 50.6912 107.715C48.3445 108.16 45.8921 108 43.8507 109.47C43.2335 109.919 41.7729 109.955 40.7903 109.832C39.2701 109.629 37.5417 109.402 36.4018 108.731C34.2467 107.446 32.4576 107.202 30.1525 108.903C29.6156 109.292 27.9665 109.229 27.1355 108.914C25.9048 108.451 24.7069 108.479 23.4059 108.619C23.1847 108.029 22.6298 107.58 21.9148 107.72C17.5234 108.448 12.8935 108.218 8.85659 110.36C7.8417 110.908 6.91715 110.086 6.17992 109.586C5.79688 109.338 5.56919 109.391 5.45997 109.454C5.51458 109.423 5.56611 109.367 5.69186 109.203C6.65252 107.993 7.82432 106.832 9.16803 105.871C10.0006 105.271 11.0859 105.974 12.0685 106.097C14.3922 106.397 16.7511 106.049 19.0001 105.295C19.3082 105.182 19.397 104.726 19.5589 104.384C20.3377 104.285 21.1103 104.138 21.8571 104.019C23.8958 103.687 24.2081 103.376 24.1923 102.092C24.1673 100.736 23.7719 100.39 21.9817 100.369C21.4533 100.362 20.8888 100.532 20.3861 100.497C19.6147 100.421 18.8916 100.265 19.0528 99.454C19.1716 98.7715 19.6477 98.3652 20.5357 98.2035C22.3663 97.8484 24.5376 97.8705 25.9636 97.0969C28.1572 95.9048 30.4554 95.5401 32.8102 95.3906C35.5718 95.2145 37.4043 93.2523 40.2998 93.2075C42.6668 93.1554 45.3739 93.0108 47.4025 92.1363C49.8196 91.089 52.2663 90.5077 54.7902 89.8425C55.0468 89.7853 55.1294 89.2804 55.2625 88.9422C50.2407 89.5525 45.1901 90.1665 40.1683 90.7768C38.5819 90.9774 37.1705 91.4031 35.6652 92.0136C32.5425 93.2738 28.966 93.726 25.5432 93.5408C24.333 93.4713 23.228 92.8447 21.7982 93.1244C17.3871 93.9294 12.6933 93.6577 8.63993 95.9007C7.84655 96.3472 6.55286 96.313 5.4795 96.3993C5.01494 96.4333 4.54227 96.1717 4.08501 96.0317C4.43228 95.7653 4.71263 95.4332 5.12682 95.2325C8.79989 93.4578 12.8599 92.4253 16.8849 91.3477C18.6712 90.8747 20.6314 90.8493 22.4908 90.4905C23.2057 90.3507 23.9126 89.9152 24.5102 89.543C24.8894 89.2973 25.2151 88.8606 25.2874 88.5054C25.3297 88.3764 24.611 88.0223 24.2041 88.049C22.8619 88.0951 21.5351 88.2629 20.196 88.3334C19.9653 88.3626 19.7069 88.1727 19.5442 88.045C19.5092 87.9999 19.6834 87.7554 19.8183 87.6642C21.0909 86.8358 22.81 86.9893 24.1567 86.0526C26.6061 84.3338 29.67 83.3036 32.9466 83.2601C37.9177 83.1753 42.0741 80.8204 46.7571 80.0799C46.959 80.0544 47.1302 79.7855 47.3455 79.6347C47.1859 79.5313 47.0459 79.3512 46.8379 79.3281C46.3321 79.2684 45.7884 79.1394 45.3299 79.2221C39.6013 80.2679 33.4677 79.7333 28.1944 82.5261C25.5408 82.8616 22.8872 83.1972 20.2625 83.5291C19.9137 82.8563 19.3299 82.411 18.1504 82.5848C17.2274 82.7015 16.2756 82.8219 15.3495 82.9143C15.3365 82.3474 15.7199 81.9034 16.4317 81.7392C18.1181 81.4023 19.8487 81.1835 21.5732 80.916C21.9804 80.197 22.8411 79.1241 22.5538 78.9379C21.2708 78.0618 21.2931 76.8477 20.7766 75.7759C20.6213 75.4741 19.1814 75.2112 18.7703 75.4362C17.3989 76.1782 16.0821 76.8886 14.3619 76.9578C9.9635 77.1679 6.3366 79.3076 2.20048 80.2014C1.57208 80.3303 1.1606 81.2476 0.27722 80.5188C-0.118127 80.1732 0.546769 79.1745 1.55859 78.6016C3.33494 77.5859 5.17092 76.8098 7.46184 76.619C9.5797 76.4501 11.6926 76.0099 13.7673 75.5003C14.3927 75.3471 15.1203 74.6123 15.2607 74.1001C15.3618 73.7412 14.6699 73.1365 14.1107 72.8859C13.0562 72.4259 11.7986 72.2141 10.7184 71.7822C10.5011 71.686 10.5376 70.8162 10.788 70.7104C12.1459 70.0937 13.8034 69.7605 14.9987 69.016C18.0961 67.0917 21.5565 66.1844 25.3276 65.8806C26.401 65.7943 27.4786 65.5097 28.5519 65.4234C31.6854 65.1755 34.3817 64.0188 36.105 62.1198C38.1086 59.8888 41.2002 59.0776 43.9069 57.7712C45.6213 56.9611 48.0326 57.027 48.4344 54.8749C48.5398 54.3177 50.3569 55.942 50.815 54.6975C52.4717 50.1866 57.6939 48.6115 62.3795 46.7335C63.997 46.084 65.7546 45.6146 67.4236 44.9091C69.2596 44.1331 71.6451 44.227 73.7764 43.9327C75.3628 43.7321 76.6461 42.0619 78.5336 43.084C79.4601 42.2993 80.3896 41.539 81.316 40.7544C82.6124 41.5052 83.585 41.0855 84.6814 40.2547C85.4306 39.6903 86.8155 38.823 87.3366 39.0043C89.3829 39.6602 90.6589 38.1639 92.3411 38.0254C97.0125 37.6572 100.822 35.5686 104.859 33.8962C105.527 33.614 105.599 33.2587 105.194 33.0628C104.973 32.9424 104.747 32.7732 104.516 32.8024C101.285 33.2109 97.8904 33.2447 94.9038 34.1909C92.1995 35.0521 89.3932 35.8024 86.762 36.7779C83.152 38.1243 79.1066 38.809 76.1223 41.164C75.672 41.5423 74.5606 41.5593 73.7726 41.5847C73.3626 41.5871 72.9703 41.2659 72.5965 41.0907C74.4836 39.0969 76 36.9522 79.41 35.8782C82.172 35.0098 85.0194 34.3531 87.6599 33.4506C90.4416 32.5056 93.1613 31.7661 96.0745 31.3978C97.4013 31.23 98.9422 31.134 99.9221 30.5404C101.612 29.5357 103.416 29.4312 105.255 29.1491C109.163 28.5314 113.233 28.5111 116.792 26.5283C117.586 26.0819 118.879 26.1161 119.956 26.0541C120.302 26.0104 120.643 26.3876 121.017 26.5628C120.83 26.71 120.604 27.0104 120.428 27.008C118.084 27.0078 116.632 28.5016 114.726 29.1876C114.446 29.2971 114.323 29.7083 114.151 29.9771C114.628 30.0404 115.118 30.2011 115.614 30.1877C116.431 30.1586 117.401 30.1842 118.005 29.8607C121.288 28.0117 125.071 27.8053 128.757 27.2898C130.314 27.0928 131.229 26.6804 131.182 25.3763C131.175 24.858 131.765 24.6598 132.238 24.9214C133.343 25.548 134.595 25.4885 135.907 25.199C135.862 24.6114 135.634 23.9727 135.957 23.5117C136.254 23.0786 137.184 22.7879 137.893 22.5994C138.656 22.3792 139.505 22.3708 140.281 22.248C146.707 21.386 153.117 20.4023 159.571 19.7593C161.452 19.5709 162.998 17.8921 164.614 18.6271C166.666 19.5543 167.843 17.2794 169.633 17.9925C171.391 18.6849 173.323 17.9709 175.146 17.7898C178.648 17.4458 182.135 16.9801 185.606 16.6155C186.644 16.4842 187.884 16.3274 188.683 16.6218C189.917 17.1086 190.436 16.5733 191.351 16.161C192.073 15.8472 193.063 16.958 194.029 16.0201C195.02 15.0542 196.283 16.6991 197.461 15.5861C198.587 14.5289 200.472 14.8345 202.046 14.5365C203.364 14.2958 204.72 14.1243 206.046 13.9566C209.533 13.4909 212.994 13.0533 216.478 12.5633C217.805 12.3955 219.512 12.4516 220.376 11.8726C222.938 10.1148 225.954 10.3268 228.806 9.94135C231.976 9.51582 235.202 9.30564 238.416 8.99812C239.857 10.2002 241.847 7.62489 243.268 9.12628C245.152 8.96221 247.086 8.9648 248.882 8.5647C250.934 8.10744 252.385 9.15993 254.273 9.02018C257.147 8.80509 259.927 8.08268 262.93 8.88954C265.447 9.56009 268.755 7.90581 271.39 9.27834C274.553 8.80414 277.752 8.37497 280.909 7.85212C281.14 7.82294 281.28 7.31074 281.439 6.94456C281.955 6.85458 282.497 6.73664 283.013 6.64666C283.156 5.68922 284.142 5.14427 285.137 5.36455C286.403 5.64934 287.155 5.80148 288.565 5.12883C289.698 4.58998 290.727 3.22387 292.518 3.71431C294.28 4.20839 295.181 2.75949 296.631 2.40316C299.869 1.59806 302.794 -0.304406 306.405 1.14242C307.176 1.44055 308.497 1.00147 309.568 0.890855C311.997 0.633147 314.419 0.326782 316.823 0.0970538C317.605 0.0229089 318.202 0.342902 318.426 0.957292C319.176 0.862464 319.964 0.836991 320.705 0.669167C323.365 0.159649 325.829 0.639221 328.429 0.8049C330.436 0.921864 331.82 1.439 333.396 2.08027C335.128 2.80064 336.856 2.55749 338.498 1.41039C340.112 0.266945 341.528 0.804783 341.517 2.33889C341.504 2.9338 341.668 3.53115 341.799 4.10782C341.946 4.80615 342.624 5.06658 343.44 5.03745C344.78 4.96701 346.1 4.75056 347.43 4.60712C350.375 4.25943 353.338 3.58811 356.22 3.66866C359.015 3.76014 361.727 4.57914 364.359 5.2351C365.629 5.54423 366.891 5.55772 368.143 5.72085C371.443 6.09462 374.752 6.54141 377.842 7.33732C379.69 7.82046 381.412 7.52864 383.221 7.47283C383.44 8.03856 383.976 8.3415 384.77 8.36468C385.564 8.38786 386.366 8.2371 387.157 8.23595C387.391 8.23111 387.591 8.42819 387.809 8.52432C387.551 8.80411 387.363 9.17395 387.026 9.29071C386.552 9.47438 385.959 9.42568 385.452 9.58866C384.971 9.72366 384.534 9.97664 384.059 10.1603C384.292 10.3781 384.483 10.7249 384.783 10.7857C387.276 11.2616 389.771 11.7618 392.487 11.2207C392.689 11.1951 392.947 11.385 393.164 11.4811C392.932 11.7329 392.751 12.1514 392.414 12.2681C389.963 13.0478 386.197 11.7688 385.331 15.1168C385.272 15.3467 384.48 15.5705 383.996 15.6812C383.197 15.8563 382.39 15.9584 381.605 16.0082C377.395 16.3181 373.191 17.8385 368.934 16.8441C368.601 16.7626 367.796 17.5813 367.265 18.0192C366.706 18.4608 366.755 18.8501 367.399 18.8428C369.769 18.8151 372.366 18.2642 374.449 18.7425C376.956 19.34 379.228 18.5336 381.556 18.6348C382.35 18.658 382.909 18.9087 383.044 19.5097C376.475 20.1673 370.009 21.8748 363.282 21.0445C359.322 20.5563 355.559 22.5402 351.831 23.6543C350.503 24.0447 351.654 24.5667 352.075 24.8843C352.627 25.3089 353.42 25.5547 353.856 25.994C354.668 26.8554 353.496 26.8553 352.842 27.0121C352.387 27.1192 351.925 27.1775 351.467 27.2602C351.709 27.551 351.943 28.0158 352.177 28.0109C354.048 27.9722 356.023 28.0684 357.781 27.599C359.651 27.0906 361.161 28.6054 362.905 27.569C363.859 27.0034 364.306 27.2929 364.392 27.9742C364.432 28.2906 364.154 28.8696 363.817 28.9864C362.867 29.3537 361.803 29.513 360.815 29.811C360.587 29.8645 360.381 30.0883 360.287 30.2732C360.236 30.3292 360.532 30.5884 360.68 30.5945C361.996 30.5763 363.306 30.5095 364.626 30.5157C365.125 30.5267 366.053 30.6813 366.034 30.7579C365.941 31.4124 365.197 31.5559 364.447 31.6508C361.22 32.0836 358.021 32.5128 354.8 32.9943C354.598 33.0198 354.398 33.2923 354.212 33.4395C354.528 33.622 354.843 34.0271 355.131 33.9907C358.333 33.5858 361.18 34.7832 364.556 34.1338C369.849 33.1184 375.279 32.7284 380.682 32.1193C381.403 32.0282 382.802 32.1974 382.827 32.392C383.079 34.3873 385.59 33.8473 387.037 34.4058C388.763 35.0775 390.721 34.3356 392.579 34.1995C393.915 34.1047 395.262 33.8603 396.62 33.7132C397.687 33.5782 398.784 33.4396 399.86 33.3777C400.238 33.3546 400.598 33.6552 401.001 33.8267C400.695 34.1868 400.415 34.5189 400.108 34.879C399.242 35.9033 397.842 35.9567 396.515 36.1244C383.622 37.7548 370.71 39.4618 357.807 41.0191C352.901 41.6148 348.769 43.4722 344.612 45.3575C344.391 45.4597 344.271 45.6726 344.116 45.8404C344.334 45.9366 344.528 46.085 344.771 46.1532C344.986 46.225 345.254 46.2651 345.517 46.2566C346.305 46.2312 347.116 46.1534 347.878 46.1559C348.112 46.151 348.313 46.3481 348.559 46.4406C348.43 46.5805 348.313 46.8177 348.143 46.8639C346.861 47.1497 345.584 47.4842 344.258 47.652C342.267 47.9036 343 49.2942 342.119 49.9742C341.958 50.0934 341.255 49.861 340.807 49.7941C340.327 49.7064 339.592 49.4533 339.376 49.6041C336.95 51.2706 333.948 51.403 331.076 51.8651C330.816 51.8979 330.612 52.3687 330.409 52.6169C330.626 52.713 330.885 52.9028 331.087 52.8773C332.971 52.7132 335.165 51.9907 336.687 52.441C339.361 53.1906 341.94 52.9633 344.547 52.4855C348.355 51.7814 351.923 52.418 355.56 52.675C356.831 52.7615 358.143 52.9416 359.372 53.1571C363.598 53.9081 367.653 53.9887 371.606 51.8819C372.239 51.5547 373.101 51.421 373.877 51.2982C376.553 50.9103 379.239 50.3728 381.924 50.2806C384.749 50.1458 386.862 48.5437 389.48 48.1632C393.221 47.616 397.005 47.1869 400.764 46.7857C401.399 46.7055 402.079 46.9903 402.71 47.1083C402.238 47.3163 401.807 47.618 401.32 47.7043C398.099 48.1858 394.868 48.5943 391.679 49.0965C391.275 49.1475 390.949 49.5843 390.57 49.83C390.791 49.9504 390.988 50.1232 391.225 50.1427C393.559 50.2925 395.636 51.1917 398.179 50.6725C400.234 50.2396 402.324 50.5439 404.453 50.6949C407.289 50.8801 410.23 51.4229 413.025 51.0448C418.124 50.3506 423.077 51.7513 428.147 50.5911C430.657 51.4356 433.336 51.0721 435.996 50.7853C437.207 50.6321 438.025 51.0725 438.894 51.4571C439.731 51.8209 440.591 52.1324 441.451 52.4439C441.872 53.9233 444.128 53.2179 445.196 54.0221C445.975 54.6159 446.335 54.9164 445.782 55.8763C445.016 57.2339 445.708 57.8386 447.284 57.7876C448.626 57.7415 449.956 57.5981 451.247 57.6079C451.513 57.6238 451.712 58.0435 451.954 58.3343C449.07 58.699 446.062 59.4749 443.383 59.1462C440.406 58.781 437.294 58.507 434.393 57.8109C432.004 57.2231 429.291 56.6267 426.842 56.9611C423.009 57.4705 419.552 56.548 415.801 56.7752C411.962 57.0133 407.95 56.8037 404.217 56.015C401.526 56.7508 398.728 55.2505 395.998 56.8319C395.233 57.2746 393.856 57.2757 392.825 57.2331C391.381 57.1685 389.978 56.5053 388.589 57.5709C386.667 56.5038 385.17 57.41 383.624 58.3965C383.325 58.5827 382.557 58.5315 382.103 58.4159C378.928 57.4083 375.799 58.6197 372.681 58.9893C371.873 59.0914 371.887 59.4357 372.523 59.8251C373.062 60.1524 373.658 60.695 372.506 61.0879C371.185 61.527 369.204 61.1594 368.914 62.8029C367.602 63.0924 366.347 63.1275 365.216 62.5289C364.743 62.2673 364.24 62.4546 364.163 63.0081C364.12 63.3597 364.248 63.9121 364.561 64.0702C365.184 64.3623 366.11 64.2699 366.733 64.562C370.414 66.3214 370.391 66.3737 371.715 66.1816C375.202 65.716 378.685 65.226 382.198 64.7324C383.583 64.5573 383.929 63.8213 383.732 62.9563C383.498 61.7993 383.864 60.9867 385.623 60.7642C388.306 60.425 390.988 60.0858 393.699 59.7429C393.901 59.7174 394.345 59.9826 394.322 60.035C394.212 60.3208 394.005 60.7673 393.774 60.7965C391.363 61.2002 388.941 61.5066 386.53 61.9103C386.242 61.9467 385.977 62.4005 385.809 62.6937C385.76 62.774 386.082 63.0052 386.274 63.1293C387.066 63.5977 387.783 64.1744 389.03 64.0663C389.347 64.0261 389.685 64.379 390.03 64.5578C389.843 64.705 389.637 64.9289 389.409 64.9824C388.092 65.2231 386.729 65.5686 385.412 65.5867C383.106 65.6558 381.943 67.5828 379.547 67.6386C377.414 67.6858 375.202 68.0396 373.128 68.5492C371.649 68.9092 370.351 69.7656 368.967 70.4102C368.8 70.4808 368.575 70.7813 368.61 70.8263C368.775 70.9784 369.031 71.1439 369.261 71.1147C372.693 70.9033 375.877 71.9839 379.477 71.2567C383.161 70.4942 386.999 70.2561 390.752 69.8062C392.108 69.6348 393.709 69.0863 394.748 69.4246C398.175 70.5733 401.627 69.3704 405.039 69.2357C406.118 69.1981 407.527 68.7481 408.185 69.0851C410.788 70.437 413.951 68.8009 416.716 69.8109C418.928 70.6189 421.853 69.186 424.553 69.9077C427.313 70.6464 430.393 69.5153 433.337 69.3902C434.096 69.3684 434.932 69.4852 435.603 69.697C437.166 70.2409 438.787 69.6157 440.369 69.6134C441.98 69.6075 443.06 70.7317 444.91 70.3C448.155 69.5435 451.143 70.2288 454.06 71.0465C456.487 71.7037 458.938 72.7782 461.421 72.7115C464.371 72.6351 467.169 73.4431 469.964 73.065C472.761 72.7112 475.143 73.473 477.764 73.3394C479.92 73.2398 482.153 73.0563 484.196 72.5261C486.806 71.8499 488.813 73.3513 491.24 72.8466C494.527 72.1839 497.503 73.2413 500.664 73.2124C500.956 73.2003 501.286 73.7271 501.444 74.0531C501.752 74.6323 501.044 75.2904 500.131 75.2574C499.161 75.2318 497.873 74.7767 497.301 75.1209C496.125 75.7887 495.464 75.4274 494.521 75.1511C493.82 74.943 492.972 74.9514 492.376 75.5706C491.674 76.2774 490.697 76.8954 489.614 76.439C487.85 75.698 486.007 75.9557 484.17 76.2622C483.709 76.3205 482.855 76.7499 482.896 76.8436C483.097 77.5103 483.931 77.3802 484.638 77.4143C484.875 77.4338 485.258 77.682 485.236 77.7343C485.039 78.0312 484.803 78.4813 484.488 78.5457C483.174 78.8108 481.812 78.9336 480.495 79.1744C480.293 79.1999 479.929 79.5673 479.964 79.6123C480.142 79.8617 480.607 80.2973 480.691 80.262C483.011 79.3753 484.693 81.0908 486.879 80.765C490.155 80.2519 493.427 79.7144 494.923 82.739C495.085 83.0893 496.315 83.0822 497.044 83.2866C499.906 84.136 502.768 84.9855 505.579 85.8908C506.864 86.3216 505.711 86.9371 505.338 87.2315C504.618 87.7923 503.642 88.1876 502.791 88.6413C502.242 88.9332 502.333 89.1936 502.905 89.5415C503.978 90.1475 505.003 90.6111 506.526 90.3692C509.225 89.929 509.202 89.9813 510.603 91.5593C511.014 92.0265 511.704 92.3842 512.278 92.7566C512.661 93.0048 513.073 93.2494 513.459 93.5219C513.59 93.629 513.685 93.9137 513.659 93.9416C513.184 94.1253 512.586 94.4975 512.254 94.416C510.741 94.0387 509.628 94.2783 508.04 94.9242C504.275 96.4385 508.782 96.8574 508.26 98.0606C507.875 98.9499 507.964 99.6554 506.158 100.205C505.904 100.287 505.61 100.275 505.356 100.356C504.881 100.54 504.438 100.744 503.967 100.952C504.283 101.134 504.563 101.495 504.883 101.479C506.225 101.433 507.446 101.353 508.786 101.752C510.768 102.366 512.906 102.121 514.823 101.062C515.453 100.711 516.26 100.139 516.508 100.948C516.971 102.521 519.257 102.751 519.968 103.972C520.371 104.613 520.491 105.562 520.17 106.27C519.704 107.219 518.568 107.041 517.455 106.811C516.489 106.587 515.385 106.43 514.372 106.533C512.52 106.718 512.362 105.7 511.732 104.889C511.557 104.664 510.936 104.619 510.482 104.504C509.67 102.95 507.975 103.684 506.542 103.939C505.798 104.082 505.813 104.427 506.24 104.793C506.702 105.204 507.148 105.716 507.244 106.248C507.388 106.922 506.608 107.243 505.889 107.581C505.475 107.782 503.895 108.031 505.323 108.666C506.16 109.03 507.255 109.114 508.198 109.391C509.142 109.667 509.974 110.921 509.518 111.251C508.981 111.64 508.256 111.93 507.547 112.118C504.978 112.888 504.846 113.004 505.046 114.585C505.12 115.169 505.197 115.777 505.415 116.343C505.573 116.669 506.166 117.187 506.391 117.11C509.842 116.129 510.681 118.594 512.672 119.504C513.17 119.738 513.551 119.739 513.928 119.247C514.906 117.936 515.942 120.104 517.12 118.991C518.555 117.599 519.177 119.275 520.172 119.495C520.895 119.651 521.538 119.866 522.238 120.075C522.615 120.966 523.772 120.845 524.689 121.149C525.239 121.327 525.536 122.055 525.691 122.58C525.715 122.774 525.053 123.328 524.678 123.375C522.258 123.706 519.547 124.519 517.468 124.065C514.451 123.383 511.624 123.963 508.718 124.157C507.09 124.264 505.516 124.562 504.033 123.959C503.941 123.921 503.494 124.101 503.478 124.202C503.38 124.585 503.204 125.052 503.414 125.323C503.828 125.814 504.412 126.259 505.064 126.548C506.518 127.155 506.281 127.828 505.567 128.907C505.099 129.609 505.729 130.419 507.116 130.491C507.618 130.526 508.085 130.739 508.545 130.903C508.137 131.153 507.745 131.524 507.286 131.606C505.715 131.929 504.2 131.997 504.165 133.806C504.148 134.599 502.555 135.443 501.785 136.307C500.938 137.255 500.178 136.807 499.135 136.667C496.603 136.344 494.003 136.178 491.399 136.211C490.374 136.217 487.445 135.994 489.58 138.048C489.647 138.114 489.109 138.726 488.795 138.79C487.74 139.022 486.632 139.064 485.577 139.296C485.118 139.379 484.313 139.728 484.305 139.902C484.34 140.639 485.251 140.425 485.91 140.539C486.927 140.707 486.863 141.358 485.981 141.568C484.814 141.84 483.678 142.354 483.533 143.065C483.072 145.447 480.26 146.148 478.316 147.457C477.724 147.878 477.031 148.188 476.407 148.589C475.485 149.175 475.797 149.556 477.52 150.203C479 150.782 477.471 150.976 477.095 151.246C476.581 151.583 475.233 151.58 476.304 152.409C476.888 152.854 477.145 153.266 476.521 153.889C475.191 155.194 473.466 155.685 471.485 155.317C470.493 155.121 469.664 154.583 469.253 155.97C469.054 156.712 468.265 157.43 467.551 158.039C464.932 160.274 464.901 160.253 467.131 161.9C467.488 162.176 467.926 162.392 468.286 162.693C468.975 163.273 468.421 164.456 467.36 164.639C465.78 164.889 464.018 165.556 462.644 164.89C460.769 163.965 459.592 166.24 458.397 165.6C455.791 164.223 452.625 165.835 449.863 164.85C448.421 164.34 446.191 165.017 444.321 165.056C442.508 165.087 440.976 164.094 438.927 164.576C437.102 164.98 435.057 164.793 433.308 165.336C431.249 165.967 429.402 164.569 427.481 165.603C426.961 165.891 426.663 165.855 426.281 165.384C425.9 164.913 425.51 164.147 424.975 164.091C423.727 163.952 422.318 164.402 421.075 163.842C419.586 163.19 417.911 163.847 416.349 163.772C415.081 163.71 413.882 163.269 412.582 163.186C411.516 163.098 410.566 163.465 409.644 164.052C407.857 165.217 405.459 165.718 403.666 164.981C401.688 164.168 399.344 165.329 397.556 164.171C396.602 163.575 395.532 164.155 394.76 164.772C394.23 165.21 393.72 165.348 393.572 164.873C392.588 161.956 389.486 162.225 386.53 162.722C384.492 163.054 382.963 162.086 381.108 162.246C378.935 162.447 376.804 162.741 374.637 162.99C373.657 163.114 373.052 161.806 371.901 162.669C370.296 163.885 368.582 164.003 366.741 163.346C365.699 162.983 364.693 162.913 363.85 163.662C362.821 164.559 361.427 164.661 360.12 164.752C359.104 164.831 357.878 164.862 357.072 164.519C355.74 163.946 355.076 165.884 353.669 164.95C352.552 164.226 352.07 165.745 351.057 165.848C350.798 165.881 350.406 166.03 350.278 165.947C348.193 164.752 345.423 166.017 343.382 165.41C340.671 164.591 338.089 165.263 335.466 165.373C335.235 165.402 334.954 165.264 334.765 165.164C332.487 164.068 330.061 165.042 327.716 165.265C325.506 167.027 322.386 167.15 319.726 168.129C311.101 171.296 305.822 173.348 299.357 173.671C297.755 173.75 296.133 174.129 294.514 174.308C293.127 174.459 292.018 175.193 290.825 175.492C286.509 176.582 282.555 178.688 277.859 178.862C275.7 178.937 273.555 179.357 271.398 179.679C269.039 180.027 266.783 180.262 264.535 181.486C262.92 182.383 260.352 182.238 258.233 182.629C257.489 182.773 256.709 183.094 256.111 183.466C254.241 184.667 251.864 184.176 249.939 184.939C247.788 185.779 245.861 186.987 243.752 187.921C243.087 188.228 242.171 188.171 241.367 188.297C240.303 188.456 239.012 188.446 238.219 188.893C236.304 189.975 234.748 191.112 233.361 188.716C232.917 187.981 231.236 188.367 230.37 188.699C228.695 189.356 227.229 190.283 225.192 190.392C222.078 190.563 219.614 191.938 217.514 193.637C216.077 194.783 214.899 195.896 212.823 194.774C209.804 196.392 206.287 196.392 202.948 196.863C201.015 197.108 199.245 197.48 197.901 198.663C195.532 198.469 193.889 200.777 192.143 200.405C190.489 200.07 189.11 200.986 188.096 200.62C186.134 199.929 185.481 201.717 183.867 201.699C182.019 201.685 180.097 202.25 178.236 202.361C176.464 202.487 175.304 203.276 173.933 204.018C172.262 204.946 170.01 203.352 168.91 204.159C167.46 205.207 165.968 203.369 164.865 204.843C164.665 205.116 163.12 204.718 162.325 204.917C161.333 205.191 160.37 205.684 159.618 206.224C158.277 207.209 157.495 207.283 157.022 205.86C156.931 205.599 156.186 205.273 155.811 205.321C153.158 205.656 150.155 205.319 147.98 206.657C146.432 207.619 144.274 206.087 143.362 207.908C141.49 208.17 139.621 208.456 137.747 208.693C135.583 208.966 133.452 209.26 131.289 209.534C121.338 210.792 111.364 212.103 101.413 213.361C99.8271 213.562 98.1541 213.773 96.6112 213.622C94.5626 213.412 92.6285 212.717 90.5995 212.43C88.2697 212.081 86.9418 214.326 84.614 214.225C84.0825 214.193 83.5468 214.36 82.9988 214.429C77.0859 215.177 71.138 215.879 65.219 216.578C64.7287 216.64 64.2076 216.459 63.7019 216.399C64.108 215.903 64.3864 215.324 64.8914 214.914C66.4031 213.66 69.3044 214.356 70.4446 212.481C70.5446 212.345 71.5118 212.346 71.9372 212.466C76.2029 213.756 80.4105 212.037 84.602 211.581C85.7558 211.435 86.8656 210.479 87.9928 209.892C88.5966 209.568 88.5185 209.182 87.7213 209.135C85.6592 209.049 83.6721 207.471 81.6319 208.718C79.2353 210.158 76.6086 210.243 73.9674 210.676C71.5857 211.076 68.8921 211.096 66.8696 212.019C64.571 213.076 62.2831 213.291 59.9364 213.736C58.6189 213.977 57.2602 214.124 55.9488 214.413C55.1792 214.585 55.4469 214.848 55.6177 215.271C56.1299 216.541 55.5281 217.112 54.2398 216.657C52.7372 216.13 51.3612 215.908 49.6398 216.2C47.2293 216.604 44.7941 216.813 42.3682 217.095C41.5606 217.197 40.753 217.299 39.9393 217.352C39.7085 217.382 39.4789 217.188 39.2616 217.092C39.5224 216.836 39.7512 216.56 40.0789 216.371C40.2684 216.248 40.6269 216.301 40.8546 216.248C41.586 216.007 42.2825 215.721 43.0109 215.456C42.3313 214.949 41.8002 214.225 40.9753 213.958C39.5716 213.518 38.0268 213.12 36.4992 213.09C34.3825 213.037 35.0205 210.434 32.3915 210.965C31.7054 211.101 31.5512 210.577 32.155 210.253C32.3735 210.126 32.5919 210 32.8484 209.943C34.6636 209.466 34.3871 208.438 34.2321 207.444C34.0998 206.398 33.0564 206.258 31.9315 206.4C30.0279 206.641 28.2623 206.815 26.4952 206.049C25.8145 205.764 24.3938 206.117 23.4666 206.432C22.2602 206.857 20.893 207.4 20.1108 208.167C18.5464 209.699 17.1919 207.794 15.8113 208.463C14.7068 208.998 13.7172 210.211 12.3528 209.617C11.3271 209.154 10.5922 208.208 10.1322 207.352C9.47882 206.124 8.28313 205.707 6.68983 205.389C5.69801 205.193 5.96875 203.626 7.01326 203.544L6.75368 203.577ZM34.2918 77.6761C34.6422 77.434 34.9802 77.0946 35.3779 76.9949C34.9771 77.0703 34.6422 77.434 34.2918 77.6761ZM48.2978 86.2384C51.2533 85.7411 54.4894 86.0735 56.9719 84.1527C57.2149 84.2208 57.4838 84.261 57.6722 84.3608C57.4807 84.2367 57.2149 84.2208 56.9719 84.1527C54.4575 86.0528 51.2533 85.7411 48.2978 86.2384ZM108.909 32.321C108.461 32.2541 108.013 32.1871 107.536 32.1238C107.984 32.1908 108.432 32.2577 108.909 32.321ZM418.769 76.0777C418.596 76.0996 418.45 76.3405 418.322 76.4804C418.423 76.5911 418.522 76.6775 418.621 76.7639C418.522 76.6775 418.42 76.5667 418.322 76.4804C418.479 76.3368 418.596 76.0996 418.769 76.0777ZM415.842 76.5714C415.842 76.5714 416.104 76.7856 416.084 76.8622C416.104 76.7856 415.944 76.6821 415.842 76.5714C415.669 76.5933 415.461 76.5701 415.381 76.6297C415.49 76.5665 415.698 76.5896 415.842 76.5714ZM428.561 79.5859C428.503 79.5932 428.391 79.6322 428.336 79.6638C428.422 79.6529 428.506 79.6176 428.561 79.5859ZM335.063 69.2589C334.583 69.1713 334.074 69.0873 333.597 69.024C334.077 69.1116 334.586 69.1956 335.063 69.2589ZM147.006 97.2168C147.006 97.2168 146.851 97.3847 146.774 97.4686C146.876 97.5793 146.975 97.6657 147.106 97.7728C147.004 97.6621 146.905 97.5757 146.774 97.4686C146.851 97.3847 146.929 97.3008 147.006 97.2168ZM201.114 173.091C201.114 173.091 200.93 173.263 200.821 173.326C201.007 173.401 201.198 173.525 201.358 173.629C201.169 173.529 201.007 173.401 200.821 173.326C200.93 173.263 201.033 173.151 201.114 173.091ZM62.5378 171.505C62.7274 171.382 62.8881 171.263 63.0777 171.14C62.8881 171.263 62.7305 171.406 62.5378 171.505Z" fill="#11203F"/>
</svg>
