<svg width="12" height="8" viewBox="0 0 12 8" fill="none" xmlns="http://www.w3.org/2000/svg">
<path opacity="0.1" d="M11.4235 3.05386C11.4235 2.84129 11.3851 2.59329 11.3851 2.30987C11.3467 2.02645 11.3083 1.74302 11.2699 1.49502C11.1931 1.2116 11.0779 0.999034 10.8475 0.821894C10.6555 0.644754 10.3866 0.538466 10.1178 0.503038C9.23459 0.396754 7.92893 0.361328 6.16244 0.361328C4.39595 0.361328 3.05187 0.396754 2.20703 0.503038C1.93822 0.538466 1.66941 0.644754 1.4774 0.821894C1.28539 0.999034 1.13178 1.2116 1.05497 1.49502C0.978169 1.74302 0.939771 1.99102 0.939771 2.30987C0.90137 2.59329 0.901367 2.84129 0.901367 3.05386C0.901367 3.26642 0.901367 3.51442 0.901367 3.8687C0.901367 4.22298 0.901367 4.50641 0.901367 4.68355C0.901367 4.89612 0.939771 5.14411 0.939771 5.42754C0.978173 5.71096 1.01657 5.99438 1.05497 6.24238C1.13178 6.5258 1.24698 6.73838 1.4774 6.91552C1.66941 7.09266 1.93822 7.19894 2.20703 7.23437C3.09028 7.34065 4.39595 7.37608 6.16244 7.37608C7.92893 7.37608 9.27299 7.34065 10.1178 7.23437C10.3866 7.19894 10.6555 7.09266 10.8475 6.91552C11.0395 6.73838 11.1931 6.5258 11.2699 6.24238C11.3467 5.99438 11.3851 5.74639 11.3851 5.42754C11.4235 5.14411 11.4235 4.89612 11.4235 4.68355C11.4235 4.47098 11.4235 4.22298 11.4235 3.8687C11.4235 3.51442 11.4235 3.231 11.4235 3.05386ZM8.19774 4.15213L5.34521 5.7844C5.22478 5.85331 5.11073 5.95896 4.97198 5.95896C4.89517 5.95896 4.85677 5.95896 4.77997 5.92353C4.66476 5.85267 4.58796 5.74639 4.58796 5.60468V2.0973C4.58796 1.95559 4.66476 1.84931 4.77997 1.77845C4.89517 1.70759 5.04878 1.70759 5.16398 1.77845L8.19774 3.51442C8.31294 3.58528 8.38975 3.69156 8.38975 3.79785C8.38975 3.90413 8.31294 4.08127 8.19774 4.15213Z" fill="#11203F"/>
</svg>
